<svg width="25" height="25" viewBox="0 0 25 25" version="1.1" xmlns="http://www.w3.org/2000/svg" xmlns:xlink="http://www.w3.org/1999/xlink" xmlns:figma="http://www.figma.com/figma/ns">
<title>Vector</title>
<desc>Created using Figma</desc>
<g id="Canvas" transform="translate(-2193 -4383)" figma:type="canvas">
<g id="Vector" style="mix-blend-mode:normal;" figma:type="vector">
<use xlink:href="#path0_fill" transform="translate(2193 4383.12)" fill="#FFFFFF" style="mix-blend-mode:normal;"/>
</g>
</g>
<defs>
<path id="path0_fill" d="M 24.0042 18.9406C 24.0551 19.3305 23.9363 19.6695 23.6483 19.9576L 20.2669 23.3134C 20.1144 23.4829 19.9153 23.6271 19.6695 23.7456C 19.4237 23.8643 19.1823 23.9406 18.945 23.9744C 18.9281 23.9744 18.8771 23.9788 18.7923 23.9872C 18.7077 23.9957 18.5975 24 18.462 24C 18.1398 24 17.6186 23.9449 16.8983 23.8347C 16.1779 23.7245 15.2966 23.4533 14.2543 23.0211C 13.2118 22.5889 12.0296 21.9406 10.7077 21.0762C 9.38566 20.212 7.97884 19.0254 6.48732 17.5169C 5.30088 16.3474 4.31783 15.2288 3.53817 14.161C 2.75851 13.0932 2.13139 12.1059 1.65682 11.1991C 1.1822 10.2924 0.82627 9.47032 0.588982 8.73304C 0.351694 7.99575 0.190678 7.36016 0.105932 6.82626C 0.0211864 6.29236 -0.0127118 5.87287 0.00423728 5.56779C 0.0211864 5.2627 0.029661 5.09321 0.029661 5.05931C 0.0635592 4.82203 0.13983 4.5805 0.258474 4.33474C 0.377118 4.08898 0.521186 3.88982 0.690677 3.73728L 4.07203 0.355932C 4.30931 0.118644 4.5805 -2.67418e-10 4.88558 -2.67418e-10C 5.10592 -2.67418e-10 5.30084 0.0635592 5.47033 0.190678C 5.63982 0.317796 5.78389 0.474575 5.90253 0.661016L 8.62287 5.82202C 8.77541 6.09321 8.81778 6.38982 8.74998 6.71185C 8.68219 7.03389 8.53812 7.30507 8.31778 7.52541L 7.07202 8.77117C 7.03812 8.80507 7.00846 8.86015 6.98304 8.93643C 6.95761 9.0127 6.9449 9.07625 6.9449 9.1271C 7.0127 9.48303 7.16524 9.88981 7.40253 10.3474C 7.60592 10.7542 7.91948 11.25 8.34321 11.8347C 8.76693 12.4195 9.36863 13.0932 10.1483 13.8559C 10.911 14.6356 11.589 15.2415 12.1822 15.6737C 12.7753 16.1058 13.2712 16.4237 13.6695 16.6271C 14.0678 16.8305 14.3729 16.9534 14.5847 16.9956L 14.9024 17.0592C 14.9363 17.0592 14.9915 17.0465 15.0677 17.0211C 15.144 16.9956 15.1991 16.966 15.233 16.9321L 16.6821 15.4575C 16.9874 15.1863 17.3431 15.0507 17.75 15.0507C 18.0382 15.0507 18.2669 15.1015 18.4364 15.2033L 18.4618 15.2033L 23.3685 18.1016C 23.7245 18.3221 23.9364 18.6017 24.0042 18.9406Z"/>
</defs>
</svg>
