<svg width="29" height="36" viewBox="0 0 29 36" version="1.1" xmlns="http://www.w3.org/2000/svg" xmlns:xlink="http://www.w3.org/1999/xlink" xmlns:figma="http://www.figma.com/figma/ns">
<title>Group</title>
<desc>Created using Figma</desc>
<g id="Canvas" transform="translate(2324 -284)" figma:type="canvas">
<g id="Group" style="mix-blend-mode:normal;" figma:type="frame">
<g id="Rectangle 40" style="mix-blend-mode:normal;" figma:type="vector">
<use xlink:href="#path0_fill" transform="matrix(1 2.67189e-24 -2.67189e-24 1 -2324 284)" fill="#FFFFFF" style="mix-blend-mode:normal;"/>
</g>
<g id="Mask Group" style="mix-blend-mode:normal;" figma:type="frame">
<mask id="mask0_alpha" mask-type="alpha">
<g id="Rectangle 40" style="mix-blend-mode:normal;" figma:type="vector">
<use xlink:href="#path0_fill" transform="matrix(1 2.67189e-24 -2.67189e-24 1 -2324 284.606)" fill="#FFFFFF" style="mix-blend-mode:normal;"/>
</g>
</mask>
<g id="Rectangle 23" style="mix-blend-mode:normal;" mask="url(#mask0_alpha)" figma:type="rounded-rectangle">
<use xlink:href="#path1_fill" transform="translate(-2324 280.168)" fill="#FF0000" style="mix-blend-mode:normal;"/>
</g>
<g id="Rectangle 23" style="mix-blend-mode:normal;" mask="url(#mask0_alpha)" figma:type="rounded-rectangle">
<use xlink:href="#path1_fill" transform="translate(-2298.93 280.168)" fill="#27AE60" style="mix-blend-mode:normal;"/>
</g>
</g>
<g id="Ellipse 5" style="mix-blend-mode:normal;" figma:type="ellipse">
<use xlink:href="#path2_fill" transform="translate(-2314 293.168)" fill="#6B3F18" style="mix-blend-mode:normal;"/>
</g>
</g>
</g>
<defs>
<path id="path0_fill" d="M 0 0L 29 0L 29 35L 14.5 25L 0 35L 0 0Z"/>
<path id="path1_fill" d="M 0 0L 4 0L 4 45L 0 45L 0 0Z"/>
<path id="path2_fill" d="M 10 5C 10 7.76142 7.76142 10 5 10C 2.23858 10 0 7.76142 0 5C 0 2.23858 2.23858 0 5 0C 7.76142 0 10 2.23858 10 5Z"/>
</defs>
</svg>
