<svg width="20" height="12" viewBox="0 0 20 12" version="1.1" xmlns="http://www.w3.org/2000/svg" xmlns:xlink="http://www.w3.org/1999/xlink" xmlns:figma="http://www.figma.com/figma/ns">
<title>XMLID 1</title>
<desc>Created using Figma</desc>
<g id="Canvas" transform="translate(2057 -2986)" figma:type="canvas">
<g id="XMLID 1" style="mix-blend-mode:normal;" figma:type="frame">
<g id="XMLID 807" style="mix-blend-mode:normal;" figma:type="vector">
<use xlink:href="#path0_fill" transform="translate(-2056.29 2986.86)" fill="#FFFFFF" style="mix-blend-mode:normal;"/>
</g>
</g>
</g>
<defs>
<path id="path0_fill" fill-rule="evenodd" d="M 16.4499 7.04978C 17.0839 7.68428 17.7531 8.28126 18.3218 8.97975C 18.573 9.29014 18.8108 9.61045 18.9927 9.97067C 19.2505 10.4827 19.017 11.0462 18.5691 11.0768L 15.7846 11.0755C 15.0664 11.1366 14.4935 10.8403 14.0117 10.3369C 13.6262 9.93443 13.2692 9.50604 12.8985 9.08995C 12.7465 8.91988 12.5875 8.75986 12.3974 8.63337C 12.0173 8.38045 11.6874 8.45789 11.4701 8.86427C 11.2489 9.27759 11.1987 9.73527 11.177 10.1959C 11.1472 10.868 10.949 11.0447 10.2903 11.0755C 8.88275 11.1435 7.54689 10.9252 6.30592 10.1974C 5.21183 9.55574 4.36341 8.64991 3.62496 7.62442C 2.18717 5.62757 1.08612 3.43335 0.0965298 1.17767C -0.126219 0.669457 0.0366823 0.396654 0.583725 0.386998C 1.49211 0.36891 2.40038 0.370197 3.30983 0.385711C 3.67903 0.391247 3.92344 0.608305 4.066 0.965821C 4.55746 2.20451 5.15883 3.38301 5.91367 4.47539C 6.11469 4.76622 6.31967 5.05704 6.61156 5.26174C 6.93447 5.48839 7.18033 5.41327 7.33224 5.04456C 7.42864 4.81076 7.47084 4.55894 7.49257 4.30854C 7.56454 3.44706 7.57402 2.58707 7.44779 1.72862C 7.3703 1.19286 7.0759 0.846027 6.55435 0.744643C 6.28821 0.692953 6.32783 0.59144 6.4567 0.435727C 6.68051 0.167172 6.89102 -8.64356e-08 7.31064 -8.64356e-08L 10.4576 -8.64356e-08C 10.953 0.100225 11.063 0.328356 11.1308 0.839333L 11.1335 4.42241C 11.1281 4.62022 11.2299 5.20722 11.5775 5.33815C 11.8557 5.43136 12.0391 5.20323 12.206 5.02241C 12.9595 4.20271 13.4972 3.234 13.9776 2.2309C 14.1908 1.78983 14.3742 1.33177 14.5518 0.874093C 14.6834 0.534472 14.89 0.367365 15.2632 0.374767L 18.2919 0.377535C 18.3817 0.377535 18.4726 0.378887 18.5596 0.394143C 19.07 0.483297 19.2098 0.708338 19.0522 1.21919C 18.8038 2.02067 18.3206 2.68858 17.8481 3.35958C 17.343 4.07597 16.8028 4.76783 16.3019 5.48846C 15.8417 6.14652 15.8783 6.47823 16.4499 7.04978Z"/>
</defs>
</svg>
