<svg width="15" height="19" viewBox="0 0 15 19" version="1.1" xmlns="http://www.w3.org/2000/svg" xmlns:xlink="http://www.w3.org/1999/xlink" xmlns:figma="http://www.figma.com/figma/ns">
<title>facebook-letter-logo</title>
<desc>Created using Figma</desc>
<g id="Canvas" transform="translate(-1908 -38)" figma:type="canvas">
<g id="facebook-letter-logo" style="mix-blend-mode:normal;" figma:type="frame">
<g id="Group" style="mix-blend-mode:normal;" figma:type="frame">
<g id="Facebook" style="mix-blend-mode:normal;" figma:type="vector">
<use xlink:href="#path0_fill" transform="translate(1913.66 38.4326)" fill="#FFFFFF" style="mix-blend-mode:normal;"/>
</g>
</g>
<mask id="mask0_alpha" mask-type="alpha">
<path d="M 1908.68 38.4326L 1913.02 38.4326L 1913.02 42.7317L 1908.68 42.7317L 1908.68 38.4326Z" fill="#FFFFFF"/>
</mask>
<g id="Group" style="mix-blend-mode:normal;" mask="url(#mask0_alpha)" figma:type="frame">
</g>
<mask id="mask1_alpha" mask-type="alpha">
<path d="M 1908.68 38.4326L 1913.02 38.4326L 1913.02 42.7317L 1908.68 42.7317L 1908.68 38.4326Z" fill="#FFFFFF"/>
</mask>
<g id="Group" style="mix-blend-mode:normal;" mask="url(#mask1_alpha)" figma:type="frame">
</g>
<mask id="mask2_alpha" mask-type="alpha">
<path d="M 1908.68 38.4326L 1913.02 38.4326L 1913.02 42.7317L 1908.68 42.7317L 1908.68 38.4326Z" fill="#FFFFFF"/>
</mask>
<g id="Group" style="mix-blend-mode:normal;" mask="url(#mask2_alpha)" figma:type="frame">
</g>
<mask id="mask3_alpha" mask-type="alpha">
<path d="M 1908.68 38.4326L 1913.02 38.4326L 1913.02 42.7317L 1908.68 42.7317L 1908.68 38.4326Z" fill="#FFFFFF"/>
</mask>
<g id="Group" style="mix-blend-mode:normal;" mask="url(#mask3_alpha)" figma:type="frame">
</g>
<mask id="mask4_alpha" mask-type="alpha">
<path d="M 1908.68 38.4326L 1913.02 38.4326L 1913.02 42.7317L 1908.68 42.7317L 1908.68 38.4326Z" fill="#FFFFFF"/>
</mask>
<g id="Group" style="mix-blend-mode:normal;" mask="url(#mask4_alpha)" figma:type="frame">
</g>
<mask id="mask5_alpha" mask-type="alpha">
<path d="M 1908.68 38.4326L 1913.02 38.4326L 1913.02 42.7317L 1908.68 42.7317L 1908.68 38.4326Z" fill="#FFFFFF"/>
</mask>
<g id="Group" style="mix-blend-mode:normal;" mask="url(#mask5_alpha)" figma:type="frame">
</g>
<mask id="mask6_alpha" mask-type="alpha">
<path d="M 1908.68 38.4326L 1913.02 38.4326L 1913.02 42.7317L 1908.68 42.7317L 1908.68 38.4326Z" fill="#FFFFFF"/>
</mask>
<g id="Group" style="mix-blend-mode:normal;" mask="url(#mask6_alpha)" figma:type="frame">
</g>
<mask id="mask7_alpha" mask-type="alpha">
<path d="M 1908.68 38.4326L 1913.02 38.4326L 1913.02 42.7317L 1908.68 42.7317L 1908.68 38.4326Z" fill="#FFFFFF"/>
</mask>
<g id="Group" style="mix-blend-mode:normal;" mask="url(#mask7_alpha)" figma:type="frame">
</g>
<mask id="mask8_alpha" mask-type="alpha">
<path d="M 1908.68 38.4326L 1913.02 38.4326L 1913.02 42.7317L 1908.68 42.7317L 1908.68 38.4326Z" fill="#FFFFFF"/>
</mask>
<g id="Group" style="mix-blend-mode:normal;" mask="url(#mask8_alpha)" figma:type="frame">
</g>
<mask id="mask9_alpha" mask-type="alpha">
<path d="M 1908.68 38.4326L 1913.02 38.4326L 1913.02 42.7317L 1908.68 42.7317L 1908.68 38.4326Z" fill="#FFFFFF"/>
</mask>
<g id="Group" style="mix-blend-mode:normal;" mask="url(#mask9_alpha)" figma:type="frame">
</g>
<mask id="mask10_alpha" mask-type="alpha">
<path d="M 1908.68 38.4326L 1913.02 38.4326L 1913.02 42.7317L 1908.68 42.7317L 1908.68 38.4326Z" fill="#FFFFFF"/>
</mask>
<g id="Group" style="mix-blend-mode:normal;" mask="url(#mask10_alpha)" figma:type="frame">
</g>
<mask id="mask11_alpha" mask-type="alpha">
<path d="M 1908.68 38.4326L 1913.02 38.4326L 1913.02 42.7317L 1908.68 42.7317L 1908.68 38.4326Z" fill="#FFFFFF"/>
</mask>
<g id="Group" style="mix-blend-mode:normal;" mask="url(#mask11_alpha)" figma:type="frame">
</g>
<mask id="mask12_alpha" mask-type="alpha">
<path d="M 1908.68 38.4326L 1913.02 38.4326L 1913.02 42.7317L 1908.68 42.7317L 1908.68 38.4326Z" fill="#FFFFFF"/>
</mask>
<g id="Group" style="mix-blend-mode:normal;" mask="url(#mask12_alpha)" figma:type="frame">
</g>
<mask id="mask13_alpha" mask-type="alpha">
<path d="M 1908.68 38.4326L 1913.02 38.4326L 1913.02 42.7317L 1908.68 42.7317L 1908.68 38.4326Z" fill="#FFFFFF"/>
</mask>
<g id="Group" style="mix-blend-mode:normal;" mask="url(#mask13_alpha)" figma:type="frame">
</g>
<mask id="mask14_alpha" mask-type="alpha">
<path d="M 1908.68 38.4326L 1913.02 38.4326L 1913.02 42.7317L 1908.68 42.7317L 1908.68 38.4326Z" fill="#FFFFFF"/>
</mask>
<g id="Group" style="mix-blend-mode:normal;" mask="url(#mask14_alpha)" figma:type="frame">
</g>
</g>
</g>
<defs>
<path id="path0_fill" d="M 1.88359 3.58112C 1.88359 4.0471 1.88359 6.12696 1.88359 6.12696L -3.70984e-08 6.12696L -3.70984e-08 9.24003L 1.88359 9.24003L 1.88359 18.491L 5.75289 18.491L 5.75289 9.24029L 8.34937 9.24029C 8.34937 9.24029 8.59255 7.7476 8.71042 6.11548C 8.37247 6.11548 5.76753 6.11548 5.76753 6.11548C 5.76753 6.11548 5.76753 4.3044 5.76753 3.98695C 5.76753 3.66882 6.1894 3.24088 6.60636 3.24088C 7.02254 3.24088 7.90093 3.24088 8.7145 3.24088C 8.7145 2.81703 8.7145 1.35254 8.7145 1.11224e-08C 7.62841 1.11224e-08 6.3928 1.11224e-08 5.84815 1.11224e-08C 1.78795 -0.000214944 1.88359 3.11595 1.88359 3.58112Z"/>
</defs>
</svg>
