<svg width="26" height="21" viewBox="0 0 26 21" version="1.1" xmlns="http://www.w3.org/2000/svg" xmlns:xlink="http://www.w3.org/1999/xlink" xmlns:figma="http://www.figma.com/figma/ns">
<title>google-plus</title>
<desc>Created using Figma</desc>
<g id="Canvas" transform="translate(-2098 -38)" figma:type="canvas">
<g id="google-plus" style="mix-blend-mode:normal;" figma:type="frame">
<g id="Group" style="mix-blend-mode:normal;" figma:type="frame">
<g id="Vector" style="mix-blend-mode:normal;" figma:type="vector">
<use xlink:href="#path0_fill" transform="translate(2098.61 42.4333)" fill="#FFFFFF" style="mix-blend-mode:normal;"/>
</g>
<g id="Vector" style="mix-blend-mode:normal;" figma:type="vector">
<use xlink:href="#path1_fill" transform="translate(2116.02 46.7284)" fill="#FFFFFF" style="mix-blend-mode:normal;"/>
</g>
</g>
<mask id="mask0_alpha" mask-type="alpha">
<path d="M 2098.61 38.0408L 2103.98 38.0408L 2103.98 43.3638L 2098.61 43.3638L 2098.61 38.0408Z" fill="#FFFFFF"/>
</mask>
<g id="Group" style="mix-blend-mode:normal;" mask="url(#mask0_alpha)" figma:type="frame">
</g>
<mask id="mask1_alpha" mask-type="alpha">
<path d="M 2098.61 38.0408L 2103.98 38.0408L 2103.98 43.3638L 2098.61 43.3638L 2098.61 38.0408Z" fill="#FFFFFF"/>
</mask>
<g id="Group" style="mix-blend-mode:normal;" mask="url(#mask1_alpha)" figma:type="frame">
</g>
<mask id="mask2_alpha" mask-type="alpha">
<path d="M 2098.61 38.0408L 2103.98 38.0408L 2103.98 43.3638L 2098.61 43.3638L 2098.61 38.0408Z" fill="#FFFFFF"/>
</mask>
<g id="Group" style="mix-blend-mode:normal;" mask="url(#mask2_alpha)" figma:type="frame">
</g>
<mask id="mask3_alpha" mask-type="alpha">
<path d="M 2098.61 38.0408L 2103.98 38.0408L 2103.98 43.3638L 2098.61 43.3638L 2098.61 38.0408Z" fill="#FFFFFF"/>
</mask>
<g id="Group" style="mix-blend-mode:normal;" mask="url(#mask3_alpha)" figma:type="frame">
</g>
<mask id="mask4_alpha" mask-type="alpha">
<path d="M 2098.61 38.0408L 2103.98 38.0408L 2103.98 43.3638L 2098.61 43.3638L 2098.61 38.0408Z" fill="#FFFFFF"/>
</mask>
<g id="Group" style="mix-blend-mode:normal;" mask="url(#mask4_alpha)" figma:type="frame">
</g>
<mask id="mask5_alpha" mask-type="alpha">
<path d="M 2098.61 38.0408L 2103.98 38.0408L 2103.98 43.3638L 2098.61 43.3638L 2098.61 38.0408Z" fill="#FFFFFF"/>
</mask>
<g id="Group" style="mix-blend-mode:normal;" mask="url(#mask5_alpha)" figma:type="frame">
</g>
<mask id="mask6_alpha" mask-type="alpha">
<path d="M 2098.61 38.0408L 2103.98 38.0408L 2103.98 43.3638L 2098.61 43.3638L 2098.61 38.0408Z" fill="#FFFFFF"/>
</mask>
<g id="Group" style="mix-blend-mode:normal;" mask="url(#mask6_alpha)" figma:type="frame">
</g>
<mask id="mask7_alpha" mask-type="alpha">
<path d="M 2098.61 38.0408L 2103.98 38.0408L 2103.98 43.3638L 2098.61 43.3638L 2098.61 38.0408Z" fill="#FFFFFF"/>
</mask>
<g id="Group" style="mix-blend-mode:normal;" mask="url(#mask7_alpha)" figma:type="frame">
</g>
<mask id="mask8_alpha" mask-type="alpha">
<path d="M 2098.61 38.0408L 2103.98 38.0408L 2103.98 43.3638L 2098.61 43.3638L 2098.61 38.0408Z" fill="#FFFFFF"/>
</mask>
<g id="Group" style="mix-blend-mode:normal;" mask="url(#mask8_alpha)" figma:type="frame">
</g>
<mask id="mask9_alpha" mask-type="alpha">
<path d="M 2098.61 38.0408L 2103.98 38.0408L 2103.98 43.3638L 2098.61 43.3638L 2098.61 38.0408Z" fill="#FFFFFF"/>
</mask>
<g id="Group" style="mix-blend-mode:normal;" mask="url(#mask9_alpha)" figma:type="frame">
</g>
<mask id="mask10_alpha" mask-type="alpha">
<path d="M 2098.61 38.0408L 2103.98 38.0408L 2103.98 43.3638L 2098.61 43.3638L 2098.61 38.0408Z" fill="#FFFFFF"/>
</mask>
<g id="Group" style="mix-blend-mode:normal;" mask="url(#mask10_alpha)" figma:type="frame">
</g>
<mask id="mask11_alpha" mask-type="alpha">
<path d="M 2098.61 38.0408L 2103.98 38.0408L 2103.98 43.3638L 2098.61 43.3638L 2098.61 38.0408Z" fill="#FFFFFF"/>
</mask>
<g id="Group" style="mix-blend-mode:normal;" mask="url(#mask11_alpha)" figma:type="frame">
</g>
<mask id="mask12_alpha" mask-type="alpha">
<path d="M 2098.61 38.0408L 2103.98 38.0408L 2103.98 43.3638L 2098.61 43.3638L 2098.61 38.0408Z" fill="#FFFFFF"/>
</mask>
<g id="Group" style="mix-blend-mode:normal;" mask="url(#mask12_alpha)" figma:type="frame">
</g>
<mask id="mask13_alpha" mask-type="alpha">
<path d="M 2098.61 38.0408L 2103.98 38.0408L 2103.98 43.3638L 2098.61 43.3638L 2098.61 38.0408Z" fill="#FFFFFF"/>
</mask>
<g id="Group" style="mix-blend-mode:normal;" mask="url(#mask13_alpha)" figma:type="frame">
</g>
<mask id="mask14_alpha" mask-type="alpha">
<path d="M 2098.61 38.0408L 2103.98 38.0408L 2103.98 43.3638L 2098.61 43.3638L 2098.61 38.0408Z" fill="#FFFFFF"/>
</mask>
<g id="Group" style="mix-blend-mode:normal;" mask="url(#mask14_alpha)" figma:type="frame">
</g>
</g>
</g>
<defs>
<path id="path0_fill" d="M 8.6427 9.41368L 12.4913 9.41368C 11.8158 11.3049 9.98612 12.6609 7.8441 12.6453C 5.24506 12.6263 3.096 10.5674 2.9951 7.99568C 2.88694 5.23894 5.12045 2.96208 7.88082 2.96208C 9.14296 2.96208 10.2947 3.43827 11.1631 4.21857C 11.3687 4.40344 11.6818 4.40461 11.8841 4.21607L 13.2976 2.89868C 13.5187 2.69263 13.5195 2.34466 13.2991 2.13791C 11.922 0.846072 10.0748 0.0408599 8.03768 0.00146955C 3.6928 -0.0825276 0.0304607 3.44498 0.000196045 7.7481C -0.0303373 12.0835 3.50965 15.6075 7.88082 15.6075C 12.0845 15.6075 15.5185 12.3483 15.7485 8.24267C 15.7547 8.19119 15.7587 6.45158 15.7587 6.45158L 8.6427 6.45158C 8.35102 6.45158 8.1146 6.68568 8.1146 6.97451L 8.1146 8.89074C 8.1146 9.17957 8.35108 9.41368 8.6427 9.41368Z"/>
<path id="path1_fill" d="M 4.8705 2.33052L 4.8705 0.458258C 4.8705 0.205149 4.66333 -3.96367e-07 4.40772 -3.96367e-07L 2.81633 -3.96367e-07C 2.56072 -3.96367e-07 2.35354 0.205149 2.35354 0.458258L 2.35354 2.33052L 0.462785 2.33052C 0.207175 2.33052 -7.87441e-07 2.53567 -7.87441e-07 2.78878L -7.87441e-07 4.36461C -7.87441e-07 4.61771 0.207175 4.82286 0.462785 4.82286L 2.35354 4.82286L 2.35354 6.69513C 2.35354 6.94824 2.56072 7.15339 2.81633 7.15339L 4.40772 7.15339C 4.66333 7.15339 4.8705 6.94824 4.8705 6.69513L 4.8705 4.82286L 6.76126 4.82286C 7.01687 4.82286 7.22405 4.61771 7.22405 4.36461L 7.22405 2.78878C 7.22405 2.53567 7.01687 2.33052 6.76126 2.33052L 4.8705 2.33052Z"/>
</defs>
</svg>
