<svg width="51" height="51" viewBox="0 0 51 51" version="1.1" xmlns="http://www.w3.org/2000/svg" xmlns:xlink="http://www.w3.org/1999/xlink" xmlns:figma="http://www.figma.com/figma/ns">
<title>vk</title>
<desc>Created using Figma</desc>
<g id="Canvas" transform="translate(-2019 -23)" figma:type="canvas">
<g id="vk" style="mix-blend-mode:normal;" figma:type="symbol">
<g id="Ellipse 2" style="mix-blend-mode:normal;" figma:type="ellipse">
<use xlink:href="#path0_fill" transform="translate(2020 23.9198)" fill="#4E75A0" style="mix-blend-mode:normal;"/>
</g>
<g id="vk" style="mix-blend-mode:normal;" figma:type="frame">
<g id="XMLID 1" style="mix-blend-mode:normal;" figma:type="frame">
<g id="XMLID 807" style="mix-blend-mode:normal;" figma:type="vector">
<use xlink:href="#path1_fill" transform="translate(2032.3 41.4239)" fill="#FFFFFF" style="mix-blend-mode:normal;"/>
</g>
</g>
<mask id="mask0_alpha" mask-type="alpha">
<path d="M 2032.31 35.8798L 2040.78 35.8798L 2040.78 44.2727L 2032.31 44.2727L 2032.31 35.8798Z" fill="#FFFFFF"/>
</mask>
<g id="Group" style="mix-blend-mode:normal;" mask="url(#mask0_alpha)" figma:type="frame">
</g>
<mask id="mask1_alpha" mask-type="alpha">
<path d="M 2032.31 35.8798L 2040.78 35.8798L 2040.78 44.2727L 2032.31 44.2727L 2032.31 35.8798Z" fill="#FFFFFF"/>
</mask>
<g id="Group" style="mix-blend-mode:normal;" mask="url(#mask1_alpha)" figma:type="frame">
</g>
<mask id="mask2_alpha" mask-type="alpha">
<path d="M 2032.31 35.8798L 2040.78 35.8798L 2040.78 44.2727L 2032.31 44.2727L 2032.31 35.8798Z" fill="#FFFFFF"/>
</mask>
<g id="Group" style="mix-blend-mode:normal;" mask="url(#mask2_alpha)" figma:type="frame">
</g>
<mask id="mask3_alpha" mask-type="alpha">
<path d="M 2032.31 35.8798L 2040.78 35.8798L 2040.78 44.2727L 2032.31 44.2727L 2032.31 35.8798Z" fill="#FFFFFF"/>
</mask>
<g id="Group" style="mix-blend-mode:normal;" mask="url(#mask3_alpha)" figma:type="frame">
</g>
<mask id="mask4_alpha" mask-type="alpha">
<path d="M 2032.31 35.8798L 2040.78 35.8798L 2040.78 44.2727L 2032.31 44.2727L 2032.31 35.8798Z" fill="#FFFFFF"/>
</mask>
<g id="Group" style="mix-blend-mode:normal;" mask="url(#mask4_alpha)" figma:type="frame">
</g>
<mask id="mask5_alpha" mask-type="alpha">
<path d="M 2032.31 35.8798L 2040.78 35.8798L 2040.78 44.2727L 2032.31 44.2727L 2032.31 35.8798Z" fill="#FFFFFF"/>
</mask>
<g id="Group" style="mix-blend-mode:normal;" mask="url(#mask5_alpha)" figma:type="frame">
</g>
<mask id="mask6_alpha" mask-type="alpha">
<path d="M 2032.31 35.8798L 2040.78 35.8798L 2040.78 44.2727L 2032.31 44.2727L 2032.31 35.8798Z" fill="#FFFFFF"/>
</mask>
<g id="Group" style="mix-blend-mode:normal;" mask="url(#mask6_alpha)" figma:type="frame">
</g>
<mask id="mask7_alpha" mask-type="alpha">
<path d="M 2032.31 35.8798L 2040.78 35.8798L 2040.78 44.2727L 2032.31 44.2727L 2032.31 35.8798Z" fill="#FFFFFF"/>
</mask>
<g id="Group" style="mix-blend-mode:normal;" mask="url(#mask7_alpha)" figma:type="frame">
</g>
<mask id="mask8_alpha" mask-type="alpha">
<path d="M 2032.31 35.8798L 2040.78 35.8798L 2040.78 44.2727L 2032.31 44.2727L 2032.31 35.8798Z" fill="#FFFFFF"/>
</mask>
<g id="Group" style="mix-blend-mode:normal;" mask="url(#mask8_alpha)" figma:type="frame">
</g>
<mask id="mask9_alpha" mask-type="alpha">
<path d="M 2032.31 35.8798L 2040.78 35.8798L 2040.78 44.2727L 2032.31 44.2727L 2032.31 35.8798Z" fill="#FFFFFF"/>
</mask>
<g id="Group" style="mix-blend-mode:normal;" mask="url(#mask9_alpha)" figma:type="frame">
</g>
<mask id="mask10_alpha" mask-type="alpha">
<path d="M 2032.31 35.8798L 2040.78 35.8798L 2040.78 44.2727L 2032.31 44.2727L 2032.31 35.8798Z" fill="#FFFFFF"/>
</mask>
<g id="Group" style="mix-blend-mode:normal;" mask="url(#mask10_alpha)" figma:type="frame">
</g>
<mask id="mask11_alpha" mask-type="alpha">
<path d="M 2032.31 35.8798L 2040.78 35.8798L 2040.78 44.2727L 2032.31 44.2727L 2032.31 35.8798Z" fill="#FFFFFF"/>
</mask>
<g id="Group" style="mix-blend-mode:normal;" mask="url(#mask11_alpha)" figma:type="frame">
</g>
<mask id="mask12_alpha" mask-type="alpha">
<path d="M 2032.31 35.8798L 2040.78 35.8798L 2040.78 44.2727L 2032.31 44.2727L 2032.31 35.8798Z" fill="#FFFFFF"/>
</mask>
<g id="Group" style="mix-blend-mode:normal;" mask="url(#mask12_alpha)" figma:type="frame">
</g>
<mask id="mask13_alpha" mask-type="alpha">
<path d="M 2032.31 35.8798L 2040.78 35.8798L 2040.78 44.2727L 2032.31 44.2727L 2032.31 35.8798Z" fill="#FFFFFF"/>
</mask>
<g id="Group" style="mix-blend-mode:normal;" mask="url(#mask13_alpha)" figma:type="frame">
</g>
<mask id="mask14_alpha" mask-type="alpha">
<path d="M 2032.31 35.8798L 2040.78 35.8798L 2040.78 44.2727L 2032.31 44.2727L 2032.31 35.8798Z" fill="#FFFFFF"/>
</mask>
<g id="Group" style="mix-blend-mode:normal;" mask="url(#mask14_alpha)" figma:type="frame">
</g>
</g>
</g>
</g>
<defs>
<path id="path0_fill" d="M 50 25C 50 38.8071 38.8071 50 25 50C 11.1929 50 0 38.8071 0 25C 0 11.1929 11.1929 0 25 0C 38.8071 0 50 11.1929 50 25Z"/>
<path id="path1_fill" fill-rule="evenodd" d="M 22.2018 9.19169C 23.0576 10.019 23.9607 10.7973 24.7282 11.708C 25.0672 12.1127 25.3882 12.5304 25.6338 13C 25.9817 13.6677 25.6666 14.4024 25.062 14.4423L 21.3038 14.4406C 20.3345 14.5202 19.5613 14.1338 18.9111 13.4776C 18.3908 12.9528 17.909 12.3942 17.4086 11.8517C 17.2035 11.63 16.9888 11.4213 16.7323 11.2564C 16.2193 10.9267 15.774 11.0276 15.4808 11.5575C 15.1822 12.0964 15.1145 12.6931 15.0852 13.2937C 15.0449 14.17 14.7774 14.4004 13.8885 14.4405C 11.9887 14.5292 10.1858 14.2446 8.51086 13.2956C 7.03421 12.459 5.88914 11.278 4.89247 9.94092C 2.95195 7.33737 1.46589 4.4765 0.130283 1.53547C -0.170353 0.872857 0.0495087 0.517168 0.787832 0.504578C 2.01385 0.480994 3.2397 0.482673 4.46716 0.5029C 4.96545 0.510118 5.29533 0.793125 5.48773 1.25926C 6.15104 2.8743 6.96268 4.41086 7.98147 5.83513C 8.25277 6.21432 8.52942 6.59351 8.92338 6.8604C 9.3592 7.15592 9.69103 7.05797 9.89606 6.57723C 10.0262 6.2724 10.0831 5.94407 10.1124 5.61759C 10.2096 4.49437 10.2224 3.37309 10.052 2.25382C 9.94742 1.55528 9.55007 1.10307 8.84616 0.970885C 8.48696 0.903491 8.54044 0.771136 8.71437 0.568113C 9.01644 0.217963 9.30055 -1.12697e-07 9.8669 -1.12697e-07L 14.1142 -1.12697e-07C 14.7828 0.130677 14.9313 0.42812 15.0229 1.09434L 15.0265 5.76606C 15.0192 6.02397 15.1566 6.78932 15.6258 6.96003C 16.0012 7.08155 16.2487 6.78411 16.474 6.54836C 17.4909 5.47961 18.2167 4.21657 18.8651 2.90871C 19.1529 2.33363 19.4003 1.7364 19.64 1.13967C 19.8177 0.696859 20.0965 0.47898 20.6002 0.488632L 24.688 0.492241C 24.8092 0.492241 24.9318 0.494003 25.0492 0.513894C 25.738 0.630136 25.9268 0.92355 25.714 1.58961C 25.3788 2.6346 24.7266 3.50544 24.0889 4.38032C 23.4072 5.31436 22.6781 6.21642 22.0021 7.156C 21.381 8.014 21.4303 8.44649 22.2018 9.19169Z"/>
</defs>
</svg>
