<svg width="72" height="68" viewBox="0 0 72 68" version="1.1" xmlns="http://www.w3.org/2000/svg" xmlns:xlink="http://www.w3.org/1999/xlink" xmlns:figma="http://www.figma.com/figma/ns">
<title>Group</title>
<desc>Created using Figma</desc>
<g id="Canvas" transform="translate(-724 506)" figma:type="canvas">
<g id="Group" style="mix-blend-mode:normal;" figma:type="frame">
<g id="Ellipse 6" style="mix-blend-mode:normal;" figma:type="ellipse">
<use xlink:href="#path0_fill" transform="translate(739.613 -501.691)" fill="#FFFFFF" style="mix-blend-mode:normal;"/>
</g>
<g id="Group" style="mix-blend-mode:normal;" figma:type="frame">
<g id="Group" style="mix-blend-mode:normal;" figma:type="frame">
<g id="Vector 7" style="mix-blend-mode:normal;" figma:type="vector">
<use xlink:href="#path1_fill" transform="translate(755.744 -492.591)" fill="#CECECE" style="mix-blend-mode:normal;"/>
</g>
<g id="Vector 6" style="mix-blend-mode:normal;" filter="url(#filter0_f)" figma:type="vector">
<use xlink:href="#path2_fill" transform="translate(748.015 -488.114)" fill="#333333" fill-opacity="0.46" style="mix-blend-mode:normal;"/>
</g>
</g>
<g id="Vector 6" style="mix-blend-mode:normal;" filter="url(#filter1_d)" figma:type="vector">
<use xlink:href="#path2_fill" transform="translate(748.013 -489.28)" fill="url(#paint3_linear)" style="mix-blend-mode:normal;"/>
</g>
</g>
</g>
</g>
<defs>
<filter id="filter0_f" filterUnits="userSpaceOnUse" x="745" y="-492" width="30" height="26" color-interpolation-filters="sRGB">
<feFlood flood-opacity="0" result="BackgroundImageFix"/>
<feBlend mode="normal" in="SourceGraphic" in2="BackgroundImageFix" result="shape"/>
<desc>type="foregroundBlur" size="3"</desc>
<feGaussianBlur stdDeviation="1.5" result="effect1_foregroundBlur"/>
</filter>
<filter id="filter1_d" filterUnits="userSpaceOnUse" x="724" y="-506" width="72" height="68" color-interpolation-filters="sRGB">
<feFlood flood-opacity="0" result="BackgroundImageFix"/>
<desc>type="dropShadow" x="0" y="8" size="24" spread="0" color="0,0,0,0.3" blend="screen"</desc>
<feColorMatrix in="SourceAlpha" type="matrix" values="0 0 0 0 0 0 0 0 0 0 0 0 0 0 0 0 0 0 255 0"/>
<feOffset dx="0" dy="8"/>
<feGaussianBlur stdDeviation="12"/>
<feColorMatrix type="matrix" values="0 0 0 0 0 0 0 0 0 0 0 0 0 0 0 0 0 0 0.3 0"/>
<feBlend mode="screen" in2="BackgroundImageFix" result="effect1_dropShadow"/>
<feBlend mode="normal" in="SourceGraphic" in2="effect1_dropShadow" result="shape"/>
</filter>
<linearGradient id="paint3_linear" x1="0" y1="0" x2="1" y2="0" gradientUnits="userSpaceOnUse" gradientTransform="matrix(-9.16224 -4.97177 11.3263 -20.6263 17.215 24.2783)">
<stop offset="0.235665" stop-color="#00736A"/>
<stop offset="1" stop-color="#00BEAE"/>
</linearGradient>
<path id="path0_fill" d="M 42 21C 42 32.598 32.598 42 21 42C 9.40202 42 0 32.598 0 21C 0 9.40202 9.40202 0 21 0C 32.598 0 42 9.40202 42 21Z"/>
<path id="path1_fill" d="M 13.5298 0.318879C 15.0761 -0.608243 17.2666 0.705179 18.1686 1.47778C 17.5244 1.86408 16.1585 3.10023 15.8492 4.95448C 15.54 6.80872 16.2358 11.1353 16.2358 13.8394C 16.2358 18.0887 13.1433 21.1791 10.8239 22.338C 6.78527 24.3559 2.47403 23.8832 0 22.338C 2.3194 20.4065 11.597 1.47778 13.5298 0.318879Z"/>
<path id="path2_fill" d="M 8.80515 11.0233C 2.95812 11.0233 -0.366552 3.91537 0.0322171 0.361407C 2.58812 -0.120469 8.13812 -0.120469 14.7867 0.361407C 21.7867 0.86875 23.9653 6.92852 23.9653 10.0189C 23.9653 13.1093 21.9568 17.1943 17.6572 18.8857C 20.9331 11.0746 12.5781 11.0233 8.80515 11.0233Z"/>
</defs>
</svg>
