<svg width="158" height="68" viewBox="0 0 158 68" version="1.1" xmlns="http://www.w3.org/2000/svg" xmlns:xlink="http://www.w3.org/1999/xlink" xmlns:figma="http://www.figma.com/figma/ns">
<title>Component</title>
<desc>Created using Figma</desc>
<g id="Canvas" transform="translate(-724 506)" figma:type="canvas">
<g id="Component" style="mix-blend-mode:normal;" figma:type="symbol">
<g id="MedDia" style="mix-blend-mode:normal;" figma:type="text">
<use xlink:href="#path0_fill" transform="translate(792 -495)" fill="#FFFFFF" style="mix-blend-mode:normal;"/>
</g>
<g id="Group" style="mix-blend-mode:normal;" figma:type="frame">
<g id="Ellipse 6" style="mix-blend-mode:normal;" figma:type="ellipse">
<use xlink:href="#path1_fill" transform="translate(739.613 -501.691)" fill="#FFFFFF" style="mix-blend-mode:normal;"/>
</g>
<g id="Group" style="mix-blend-mode:normal;" figma:type="frame">
<g id="Group" style="mix-blend-mode:normal;" figma:type="frame">
<g id="Vector 7" style="mix-blend-mode:normal;" figma:type="vector">
<use xlink:href="#path2_fill" transform="translate(755.744 -492.591)" fill="#CECECE" style="mix-blend-mode:normal;"/>
</g>
<g id="Vector 6" style="mix-blend-mode:normal;" filter="url(#filter0_f)" figma:type="vector">
<use xlink:href="#path3_fill" transform="translate(748.015 -488.114)" fill="#333333" fill-opacity="0.46" style="mix-blend-mode:normal;"/>
</g>
</g>
<g id="Vector 6" style="mix-blend-mode:normal;" filter="url(#filter1_d)" figma:type="vector">
<use xlink:href="#path3_fill" transform="translate(748.013 -489.28)" fill="url(#paint4_linear)" style="mix-blend-mode:normal;"/>
</g>
</g>
</g>
</g>
</g>
<defs>
<filter id="filter0_f" filterUnits="userSpaceOnUse" x="745" y="-492" width="30" height="26" color-interpolation-filters="sRGB">
<feFlood flood-opacity="0" result="BackgroundImageFix"/>
<feBlend mode="normal" in="SourceGraphic" in2="BackgroundImageFix" result="shape"/>
<desc>type="foregroundBlur" size="3"</desc>
<feGaussianBlur stdDeviation="1.5" result="effect1_foregroundBlur"/>
</filter>
<filter id="filter1_d" filterUnits="userSpaceOnUse" x="724" y="-506" width="72" height="68" color-interpolation-filters="sRGB">
<feFlood flood-opacity="0" result="BackgroundImageFix"/>
<desc>type="dropShadow" x="0" y="8" size="24" spread="0" color="0,0,0,0.3" blend="screen"</desc>
<feColorMatrix in="SourceAlpha" type="matrix" values="0 0 0 0 0 0 0 0 0 0 0 0 0 0 0 0 0 0 255 0"/>
<feOffset dx="0" dy="8"/>
<feGaussianBlur stdDeviation="12"/>
<feColorMatrix type="matrix" values="0 0 0 0 0 0 0 0 0 0 0 0 0 0 0 0 0 0 0.3 0"/>
<feBlend mode="screen" in2="BackgroundImageFix" result="effect1_dropShadow"/>
<feBlend mode="normal" in="SourceGraphic" in2="effect1_dropShadow" result="shape"/>
</filter>
<linearGradient id="paint4_linear" x1="0" y1="0" x2="1" y2="0" gradientUnits="userSpaceOnUse" gradientTransform="matrix(-9.16224 -4.97177 11.3263 -20.6263 17.215 24.2783)">
<stop offset="0.235665" stop-color="#00736A"/>
<stop offset="1" stop-color="#00BEAE"/>
</linearGradient>
<path id="path0_fill" d="M 17.088 12.672L 12.552 21.84L 10.32 21.84L 5.808 12.672L 5.808 23.232L 2.064 23.232L 2.064 6.456L 7.128 6.456L 11.448 15.672L 15.792 6.456L 20.832 6.456L 20.832 23.232L 17.088 23.232L 17.088 12.672ZM 34.1064 21.36C 32.6504 22.736 30.9384 23.424 28.9704 23.424C 27.0184 23.424 25.4024 22.824 24.1224 21.624C 22.8424 20.408 22.2024 18.784 22.2024 16.752C 22.2024 14.72 22.8504 13.104 24.1464 11.904C 25.4584 10.704 27.0024 10.104 28.7784 10.104C 30.5544 10.104 32.0584 10.64 33.2904 11.712C 34.5384 12.784 35.1624 14.256 35.1624 16.128L 35.1624 18.048L 25.7544 18.048C 25.8664 18.752 26.2344 19.328 26.8584 19.776C 27.4824 20.224 28.1864 20.448 28.9704 20.448C 30.2344 20.448 31.2744 20.024 32.0904 19.176L 34.1064 21.36ZM 31.5144 15.48C 31.4344 14.712 31.1464 14.12 30.6504 13.704C 30.1544 13.288 29.5464 13.08 28.8264 13.08C 28.1224 13.08 27.4744 13.296 26.8824 13.728C 26.2904 14.16 25.9464 14.744 25.8504 15.48L 31.5144 15.48ZM 41.2384 23.424C 39.7184 23.424 38.3584 22.776 37.1584 21.48C 35.9584 20.184 35.3584 18.576 35.3584 16.656C 35.3584 14.736 35.9424 13.168 37.1104 11.952C 38.2784 10.72 39.6464 10.104 41.2144 10.104C 42.7824 10.104 44.0624 10.656 45.0544 11.76L 45.0544 5.424L 48.6544 5.424L 48.6544 23.232L 45.0544 23.232L 45.0544 21.528C 44.0464 22.792 42.7744 23.424 41.2384 23.424ZM 38.9824 16.8C 38.9824 17.84 39.2944 18.696 39.9184 19.368C 40.5424 20.024 41.2704 20.352 42.1024 20.352C 42.9344 20.352 43.6384 20.024 44.2144 19.368C 44.8064 18.696 45.1024 17.84 45.1024 16.8C 45.1024 15.744 44.8064 14.872 44.2144 14.184C 43.6384 13.48 42.9264 13.128 42.0784 13.128C 41.2304 13.128 40.5024 13.48 39.8944 14.184C 39.2864 14.888 38.9824 15.76 38.9824 16.8ZM 56.6707 6.456C 59.6627 6.456 61.9587 7.192 63.5587 8.664C 65.1587 10.12 65.9587 12.152 65.9587 14.76C 65.9587 17.368 65.1747 19.432 63.6067 20.952C 62.0547 22.472 59.6787 23.232 56.4787 23.232L 50.7427 23.232L 50.7427 6.456L 56.6707 6.456ZM 56.8627 19.92C 58.5747 19.92 59.8867 19.488 60.7987 18.624C 61.7267 17.76 62.1907 16.504 62.1907 14.856C 62.1907 13.208 61.7267 11.944 60.7987 11.064C 59.8867 10.168 58.4787 9.72 56.5747 9.72L 54.4867 9.72L 54.4867 19.92L 56.8627 19.92ZM 70.6074 23.232L 67.0074 23.232L 67.0074 10.32L 70.6074 10.32L 70.6074 23.232ZM 67.2954 8.688C 66.8954 8.272 66.6954 7.768 66.6954 7.176C 66.6954 6.584 66.8954 6.088 67.2954 5.688C 67.7114 5.272 68.2154 5.064 68.8074 5.064C 69.3994 5.064 69.8954 5.272 70.2954 5.688C 70.7114 6.088 70.9194 6.584 70.9194 7.176C 70.9194 7.768 70.7114 8.272 70.2954 8.688C 69.8954 9.088 69.3994 9.288 68.8074 9.288C 68.2154 9.288 67.7114 9.088 67.2954 8.688ZM 83.3032 23.232L 79.9192 23.232L 79.9192 21.672C 78.9912 22.84 77.8392 23.424 76.4632 23.424C 75.1032 23.424 73.9592 23.032 73.0312 22.248C 72.1032 21.448 71.6392 20.392 71.6392 19.08C 71.6392 17.752 72.1192 16.76 73.0792 16.104C 74.0392 15.448 75.3512 15.12 77.0152 15.12L 79.7032 15.12L 79.7032 15.048C 79.7032 13.672 78.9752 12.984 77.5192 12.984C 76.8952 12.984 76.2312 13.112 75.5272 13.368C 74.8392 13.608 74.2552 13.912 73.7752 14.28L 72.1672 11.952C 73.8632 10.72 75.7992 10.104 77.9752 10.104C 79.5432 10.104 80.8232 10.496 81.8152 11.28C 82.8072 12.064 83.3032 13.304 83.3032 15L 83.3032 23.232ZM 79.6792 18.312L 79.6792 17.688L 77.4232 17.688C 75.9832 17.688 75.2632 18.136 75.2632 19.032C 75.2632 19.496 75.4312 19.856 75.7672 20.112C 76.1192 20.352 76.6152 20.472 77.2552 20.472C 77.8952 20.472 78.4552 20.28 78.9352 19.896C 79.4312 19.496 79.6792 18.968 79.6792 18.312Z"/>
<path id="path1_fill" d="M 42 21C 42 32.598 32.598 42 21 42C 9.40202 42 0 32.598 0 21C 0 9.40202 9.40202 0 21 0C 32.598 0 42 9.40202 42 21Z"/>
<path id="path2_fill" d="M 13.5298 0.318879C 15.0761 -0.608243 17.2666 0.705179 18.1686 1.47778C 17.5244 1.86408 16.1585 3.10023 15.8492 4.95448C 15.54 6.80872 16.2358 11.1353 16.2358 13.8394C 16.2358 18.0887 13.1433 21.1791 10.8239 22.338C 6.78527 24.3559 2.47403 23.8832 0 22.338C 2.3194 20.4065 11.597 1.47778 13.5298 0.318879Z"/>
<path id="path3_fill" d="M 8.80515 11.0233C 2.95812 11.0233 -0.366552 3.91537 0.0322171 0.361407C 2.58812 -0.120469 8.13812 -0.120469 14.7867 0.361407C 21.7867 0.86875 23.9653 6.92852 23.9653 10.0189C 23.9653 13.1093 21.9568 17.1943 17.6572 18.8857C 20.9331 11.0746 12.5781 11.0233 8.80515 11.0233Z"/>
</defs>
</svg>
