<svg width="20" height="19" viewBox="0 0 20 19" version="1.1" xmlns="http://www.w3.org/2000/svg" xmlns:xlink="http://www.w3.org/1999/xlink" xmlns:figma="http://www.figma.com/figma/ns">
<title>Vector</title>
<desc>Created using Figma</desc>
<g id="Canvas" transform="translate(-1683 488)" figma:type="canvas">
<g id="Vector" style="mix-blend-mode:normal;" figma:type="vector">
<use xlink:href="#path0_fill" transform="translate(1683 -487.377)" fill="#FFFFFF" style="mix-blend-mode:normal;"/>
</g>
</g>
<defs>
<path id="path0_fill" d="M 18.3845 1.63239C 17.3373 0.585116 15.9508 0.0127199 14.471 0.0127199C 12.9913 0.0127199 11.6006 0.589356 10.5533 1.63663L 10.0064 2.18358L 9.45091 1.62815C 8.40364 0.580876 7.00869 -2.32908e-08 5.52894 -2.32908e-08C 4.05343 -2.32908e-08 2.66272 0.576636 1.61969 1.61967C 0.572419 2.66694 -0.00421675 4.05765 2.32169e-05 5.5374C 2.32169e-05 7.01715 0.580899 8.40362 1.62817 9.45089L 9.59083 17.4136C 9.70107 17.5238 9.84947 17.5831 9.99363 17.5831C 10.1378 17.5831 10.2862 17.528 10.3964 17.4178L 18.376 9.46785C 19.4233 8.42058 20 7.02987 20 5.55012C 20.0042 4.07037 19.4318 2.67966 18.3845 1.63239Z"/>
</defs>
</svg>
