<svg width="453" height="82" viewBox="0 0 453 82" version="1.1" xmlns="http://www.w3.org/2000/svg" xmlns:xlink="http://www.w3.org/1999/xlink" xmlns:figma="http://www.figma.com/figma/ns">
<title>Component</title>
<desc>Created using Figma</desc>
<g id="Canvas" transform="translate(-982 -1498)" figma:type="canvas">
<g id="Component" style="mix-blend-mode:normal;" figma:type="symbol">
<g id="Group" style="mix-blend-mode:normal;" figma:type="frame">
<g id="Vector" style="mix-blend-mode:normal;" figma:type="vector">
<use xlink:href="#path0_fill" transform="translate(1379.19 1501.08)" fill="#B2B2B2" style="mix-blend-mode:normal;"/>
</g>
<g id="Group" style="mix-blend-mode:normal;" figma:type="frame">
<g id="Group" style="mix-blend-mode:normal;" figma:type="frame">
<g id="Vector" style="mix-blend-mode:normal;" figma:type="vector">
<use xlink:href="#path1_stroke" transform="translate(1003.41 1544.24)" fill="#B2B2B2" style="mix-blend-mode:normal;"/>
</g>
<g id="Vector" style="mix-blend-mode:normal;" figma:type="vector">
<use xlink:href="#path2_stroke" transform="translate(1007.03 1498.5)" fill="#B2B2B2" style="mix-blend-mode:normal;"/>
</g>
<g id="Vector" style="mix-blend-mode:normal;" figma:type="vector">
<use xlink:href="#path3_stroke" transform="translate(1375.61 1533.35)" fill="#B2B2B2" style="mix-blend-mode:normal;"/>
</g>
</g>
</g>
</g>
<g id="Vector" style="mix-blend-mode:normal;" figma:type="vector">
<use xlink:href="#path4_fill" transform="translate(982.802 1510.7)" fill="#D4D6D7" style="mix-blend-mode:normal;"/>
</g>
</g>
</g>
<defs>
<path id="path0_fill" d="M 49.0305 21.8588C 51.9875 20.5958 54.3224 18.8568 55.2854 17.2068C 55.5924 16.6708 55.7265 16.1888 55.7055 15.7598C 55.7055 15.7108 55.7035 15.5748 55.6595 15.4188C 55.6125 15.2568 55.5525 15.1488 55.5385 15.1268C 55.3375 14.7188 54.9785 14.3698 54.4405 14.0588C 52.7935 13.1098 49.9025 12.7628 46.7085 13.1398C 44.1255 13.4448 41.2255 14.3018 37.2135 15.4848C 36.5285 15.6838 35.8135 15.8968 35.0565 16.1138L 31.0665 11.8718L 31.0874 11.8648C 31.4044 11.7788 31.6835 11.5648 31.8395 11.2888C 32.0075 11.0028 32.0515 10.6538 31.9675 10.3388L 31.6025 8.95979C 31.5175 8.63779 31.3065 8.36379 31.0185 8.19779C 30.7295 8.02979 30.3915 7.98179 30.0685 8.07079L 28.0075 8.61979L 27.4385 8.01379C 27.6955 7.91079 27.9145 7.72179 28.0495 7.48879C 28.2175 7.19779 28.2665 6.85979 28.1755 6.53679L 27.8085 5.15079C 27.7265 4.83579 27.5155 4.55979 27.2225 4.39179C 26.9335 4.22279 26.5985 4.17779 26.2795 4.26979L 24.3915 4.77279L 20.3285 0.457794C 20.2355 0.359794 20.1315 0.275794 20.0065 0.203794C 19.6565 0.00579356 19.2554 -0.0502064 18.8844 0.0457936L 16.1575 0.772794C 15.8465 0.855794 15.5875 1.05579 15.4405 1.30579C 15.2225 1.67579 15.2275 2.13579 15.4555 2.50179L 22.4425 14.2548C 22.4745 14.3088 22.5595 14.5028 22.5835 14.5878L 23.8215 19.2388C 19.3885 20.5418 15.3045 21.9338 11.9795 23.2728C 11.6695 23.3948 11.3705 23.5208 11.0785 23.6448L 3.50847 18.2898C 3.47647 18.2618 3.43247 18.2328 3.37547 18.1998C 3.00547 17.9978 2.56444 17.9328 2.14744 18.0348L 0.876447 18.3738C 0.564447 18.4548 0.299477 18.6528 0.156477 18.9088C -0.0745235 19.2938 -0.0455025 19.7888 0.215498 20.1478L 4.29045 26.0738C 4.32345 26.1258 4.3965 26.2888 4.4135 26.3528L 4.61046 27.0848C 4.22746 27.4098 3.94649 27.7258 3.76249 28.0348C 3.51949 28.4528 3.44845 28.8908 3.55345 29.2988L 3.56547 29.3278L 3.5695 29.3368C 3.6845 29.7448 3.95245 30.0758 4.37645 30.3208C 4.68845 30.4928 5.07946 30.6258 5.57646 30.7178L 5.77446 31.4658C 5.79246 31.5258 5.80747 31.7008 5.80247 31.7618L 5.21946 38.9118C 5.17346 39.3658 5.39047 39.8008 5.77147 40.0228L 5.7805 40.0268C 6.0435 40.1798 6.3585 40.2178 6.6635 40.1368L 7.96946 39.7858C 8.35946 39.6708 8.71345 39.3988 8.93345 39.0258C 8.95745 38.9808 8.97946 38.9428 8.98546 38.9248L 12.9045 30.4818C 13.2185 30.4468 13.5385 30.4018 13.8695 30.3588C 17.4265 29.8628 21.6585 29.0318 26.1455 27.9628L 27.3865 32.6158C 27.4045 32.6918 27.4324 32.9008 27.4284 32.9788L 27.2175 46.6248C 27.2015 47.0588 27.4205 47.4588 27.7945 47.6778C 28.0625 47.8318 28.3795 47.8758 28.6885 47.7878L 31.4355 47.0588C 31.7985 46.9528 32.1095 46.7078 32.3155 46.3578C 32.3835 46.2398 32.4325 46.1148 32.4645 45.9928L 33.8385 40.2258L 35.7295 39.7228C 36.0465 39.6398 36.3255 39.4268 36.4895 39.1418C 36.6565 38.8548 36.7005 38.5188 36.6185 38.1958L 36.2465 36.8088C 36.1605 36.4918 35.9494 36.2148 35.6654 36.0518C 35.4214 35.9098 35.1395 35.8538 34.8685 35.8908L 35.0645 35.0848L 37.1264 34.5358C 37.4424 34.4478 37.7194 34.2378 37.8844 33.9498C 38.0514 33.6628 38.0955 33.3288 38.0105 33.0078L 37.6465 31.6268C 37.5605 31.3078 37.3455 31.0308 37.0585 30.8638C 36.7725 30.6968 36.4245 30.6508 36.1125 30.7388L 36.0985 30.7398L 37.4455 25.0748C 38.2215 24.8878 38.9584 24.7078 39.6604 24.5418C 43.7164 23.5748 46.6485 22.8768 49.0305 21.8588Z"/>
<path id="path1_stroke" d="M -3.41797e-06 1.64C 0.425896 1.90193 0.425878 1.90197 0.42586 1.90199C 0.425857 1.902 0.425841 1.90202 0.425833 1.90204C 0.425835 1.90203 0.425801 1.90209 0.425805 1.90208C 0.425786 1.90211 0.425811 1.90207 0.425848 1.90201C 0.425975 1.90181 0.426086 1.90163 0.42634 1.90122C 0.426954 1.90022 0.427715 1.89899 0.428945 1.89702C 0.431619 1.89272 0.435305 1.88681 0.440662 1.87829C 0.451811 1.86055 0.467883 1.83517 0.490277 1.80033C 0.535949 1.72926 0.603241 1.62609 0.695438 1.48898C 0.881685 1.21194 1.15961 0.810984 1.53922 0.297023L 0.734789 -0.29702C 0.346399 0.229018 0.055821 0.648066 -0.134437 0.931026C -0.230491 1.07392 -0.303452 1.18574 -0.350968 1.25967C -0.375169 1.29733 -0.393926 1.32695 -0.405958 1.34609C -0.41219 1.356 -0.417182 1.364 -0.420289 1.369C -0.421949 1.37167 -0.423354 1.37394 -0.424182 1.37528C -0.42465 1.37603 -0.42508 1.37673 -0.425314 1.37711C -0.425457 1.37734 -0.425605 1.37758 -0.425676 1.3777C -0.425725 1.37778 -0.425782 1.37787 -0.425806 1.37791C -0.425825 1.37794 -0.425849 1.37798 -0.425859 1.37799C -0.425882 1.37803 -0.425903 1.37807 -3.41797e-06 1.64Z"/>
<path id="path2_stroke" d="M 88.212 13.8474L 88.264 13.3501L 88.264 13.3501L 88.212 13.8474ZM 132.394 79.8474L 132.274 80.3329L 132.394 79.8474ZM 173.025 38.8474L 172.949 39.3416L 173.025 38.8474ZM 266.74 59.8474L 266.897 60.3222L 266.74 59.8474ZM 296.005 0.374385L 295.904 0.864034L 296.005 0.374385ZM 308.44 35.8474L 308.464 35.348L 308.44 35.8474ZM 0.378815 42.9707C 0.782454 42.5022 1.2189 42.0098 1.69404 41.4917L 0.957008 40.8158C 0.476196 41.3402 0.029457 41.8441 -0.378817 42.318L 0.378815 42.9707ZM 4.48274 38.6225C 5.37939 37.7503 6.35394 36.8468 7.41852 35.9157L 6.76014 35.163C 5.68474 36.1037 4.6908 37.0252 3.78551 37.9056L 4.48274 38.6225ZM 10.4921 33.3618C 11.4968 32.5687 12.5558 31.7713 13.6803 30.9692L 13.0996 30.1551C 11.9647 30.9647 10.8862 31.7768 9.87252 32.5769L 10.4921 33.3618ZM 16.9855 28.7285C 18.0777 28.0252 19.2129 27.3293 20.402 26.6396L 19.9003 25.7746C 18.7007 26.4705 17.5456 27.1785 16.4441 27.8878L 16.9855 28.7285ZM 23.896 24.718C 25.053 24.1152 26.2457 23.5261 27.4845 22.9493L 27.0624 22.0427C 25.8132 22.6244 24.6006 23.2234 23.434 23.8311L 23.896 24.718ZM 31.1457 21.3409C 32.3521 20.8417 33.5887 20.3597 34.8658 19.8937L 34.523 18.9543C 33.2357 19.4241 31.9794 19.9138 30.7634 20.4168L 31.1457 21.3409ZM 38.6501 18.601C 39.8999 18.2026 41.176 17.8233 42.4885 17.4624L 42.2234 16.4982C 40.901 16.8619 39.6056 17.2469 38.3464 17.6482L 38.6501 18.601ZM 46.3713 16.4763C 47.6478 16.1784 48.9473 15.9004 50.2794 15.6421L 50.089 14.6604C 48.7475 14.9205 47.4296 15.2025 46.144 15.5025L 46.3713 16.4763ZM 54.2172 14.9531C 55.5146 14.7502 56.8324 14.5676 58.1795 14.4053L 58.0599 13.4125C 56.7039 13.5759 55.3687 13.7609 54.0628 13.9651L 54.2172 14.9531ZM 62.1602 13.9947C 63.4706 13.8818 64.7992 13.7889 66.1544 13.7166L 66.1012 12.7181C 64.7377 12.7908 63.3928 12.8848 62.0744 12.9984L 62.1602 13.9947ZM 70.158 13.5665C 71.4755 13.5377 72.8095 13.5284 74.1676 13.5397L 74.1759 12.5397C 72.8102 12.5284 71.4611 12.5378 70.1361 12.5668L 70.158 13.5665ZM 78.1652 13.6309C 79.4791 13.6797 80.8076 13.7473 82.1579 13.8349L 82.2226 12.837C 80.8654 12.7489 79.523 12.6806 78.2024 12.6316L 78.1652 13.6309ZM 86.1464 14.1471C 86.8138 14.2082 87.4839 14.2739 88.16 14.3447L 88.264 13.3501C 87.5848 13.279 86.9082 13.2127 86.2376 13.1513L 86.1464 14.1471ZM 88.16 14.3447C 88.857 14.4176 89.5441 14.4965 90.2261 14.5817L 90.3501 13.5895C 89.6631 13.5036 88.9661 13.4236 88.264 13.3501L 88.16 14.3447ZM 94.2242 15.1642C 95.6048 15.3948 96.9468 15.6502 98.2617 15.9313L 98.4707 14.9534C 97.1448 14.67 95.7807 14.4104 94.3889 14.1779L 94.2242 15.1642ZM 102.23 16.8786C 103.567 17.2325 104.862 17.6113 106.126 18.0167L 106.432 17.0644C 105.155 16.6552 103.836 16.2692 102.485 15.9119L 102.23 16.8786ZM 109.948 19.3577C 111.25 19.8556 112.503 20.3783 113.721 20.9294L 114.133 20.0183C 112.902 19.4612 111.621 18.9271 110.306 18.4237L 109.948 19.3577ZM 117.379 22.724C 118.603 23.3743 119.774 24.0475 120.905 24.7493L 121.432 23.8994C 120.287 23.1891 119.087 22.4991 117.848 21.8408L 117.379 22.724ZM 124.28 27.0102C 125.402 27.8207 126.464 28.6507 127.481 29.5081L 128.126 28.7433C 127.094 27.8743 126.003 27.0214 124.866 26.1997L 124.28 27.0102ZM 130.483 32.2402C 131.468 33.2092 132.389 34.192 133.26 35.1986L 134.016 34.5441C 133.132 33.5228 132.184 32.5108 131.185 31.5273L 130.483 32.2402ZM 135.787 38.3712C 136.602 39.4853 137.348 40.6045 138.039 41.7409L 138.893 41.221C 138.191 40.0671 137.421 38.9128 136.594 37.7811L 135.787 38.3712ZM 139.993 45.2867C 140.608 46.5273 141.151 47.7607 141.633 49.0005L 142.565 48.638C 142.075 47.378 141.514 46.1037 140.889 44.8425L 139.993 45.2867ZM 142.929 52.8467C 143.31 54.1802 143.615 55.4885 143.852 56.7862L 144.836 56.6062C 144.594 55.2851 144.278 53.9294 143.89 52.5719L 142.929 52.8467ZM 144.372 60.798C 144.478 62.1959 144.499 63.5377 144.441 64.8404L 145.44 64.8845C 145.499 63.5519 145.477 62.1504 145.369 60.7228L 144.372 60.798ZM 143.987 68.8419C 143.724 70.2361 143.363 71.5099 142.901 72.6857L 143.832 73.0507C 144.311 71.829 144.697 70.4657 144.97 69.0279L 143.987 68.8419ZM 141.006 76.1565C 140.161 77.2812 139.22 78.1301 138.125 78.7268L 138.606 79.6036C 139.799 78.9454 140.898 77.9569 141.805 76.7586L 141.006 76.1565ZM 134.439 79.6238C 133.812 79.6118 133.187 79.5286 132.514 79.3619L 132.274 80.3329C 133.001 80.5112 133.735 80.6088 134.419 80.6236L 134.439 79.6238ZM 132.514 79.3619C 131.898 79.2105 131.327 79.0274 130.767 78.8047L 130.398 79.7339C 130.989 79.9687 131.626 80.1727 132.274 80.3329L 132.514 79.3619ZM 127.621 76.9718C 126.658 76.1937 125.86 75.3045 125.18 74.2764L 124.346 74.829C 125.069 75.9165 125.969 76.9186 126.991 77.7487L 127.621 76.9718ZM 123.602 70.9792C 123.229 69.8326 122.993 68.6402 122.887 67.3697L 121.891 67.4533C 122.003 68.7793 122.261 70.0846 122.651 71.2882L 123.602 70.9792ZM 122.951 63.6714C 123.088 62.4675 123.332 61.2634 123.696 60.0341L 122.737 59.7507C 122.362 61.022 122.1 62.3112 121.958 63.5582L 122.951 63.6714ZM 125.034 56.5566C 125.557 55.4594 126.165 54.3881 126.879 53.3235L 126.048 52.7668C 125.315 53.8625 124.67 54.997 124.132 56.1261L 125.034 56.5566ZM 129.164 50.3732C 129.973 49.4616 130.85 48.589 131.82 47.7422L 131.162 46.9891C 130.169 47.8575 129.246 48.7747 128.416 49.7093L 129.164 50.3732ZM 134.78 45.4524C 135.784 44.765 136.842 44.1209 137.978 43.5124L 137.505 42.6309C 136.345 43.2528 135.241 43.9251 134.215 44.6272L 134.78 45.4524ZM 141.374 41.9083C 142.504 41.4406 143.678 41.0157 144.917 40.6306L 144.62 39.6757C 143.359 40.0679 142.142 40.5082 140.991 40.9842L 141.374 41.9083ZM 148.549 39.6655C 149.741 39.3997 150.968 39.1733 152.248 38.9861L 152.103 37.9966C 150.805 38.1867 149.542 38.4198 148.332 38.6895L 148.549 39.6655ZM 155.993 38.5679C 157.217 38.4718 158.47 38.4115 159.766 38.3885L 159.749 37.3887C 158.437 37.412 157.154 37.4738 155.915 37.5709L 155.993 38.5679ZM 163.543 38.4264C 164.767 38.4716 166.015 38.5485 167.298 38.6595L 167.384 37.6632C 166.088 37.5512 164.816 37.4728 163.58 37.4271L 163.543 38.4264ZM 171.043 39.0694C 171.673 39.1524 172.306 39.2428 172.949 39.3416L 173.101 38.3532C 172.453 38.2536 171.809 38.1617 171.174 38.078L 171.043 39.0694ZM 172.949 39.3416C 173.643 39.4483 174.327 39.5579 175.004 39.6708L 175.169 38.6845C 174.489 38.571 173.799 38.4604 173.101 38.3532L 172.949 39.3416ZM 179.03 40.3975C 180.403 40.6644 181.734 40.9434 183.034 41.2345L 183.252 40.2587C 181.946 39.9661 180.601 39.6842 179.221 39.4159L 179.03 40.3975ZM 187.013 42.1884C 188.371 42.5358 189.685 42.8945 190.964 43.2648L 191.242 42.3042C 189.956 41.9319 188.627 41.569 187.261 41.2196L 187.013 42.1884ZM 194.88 44.4677C 196.215 44.9018 197.503 45.3452 198.755 45.7983L 199.095 44.858C 197.836 44.4023 196.533 43.9535 195.189 43.5167L 194.88 44.4677ZM 202.58 47.2543C 203.882 47.7737 205.135 48.2986 206.352 48.8286L 206.751 47.9117C 205.527 47.379 204.26 46.8481 202.951 46.3256L 202.58 47.2543ZM 210.083 50.5149C 211.356 51.1108 212.585 51.7057 213.782 52.2971L 214.225 51.4006C 213.025 50.8074 211.786 50.2079 210.507 49.6092L 210.083 50.5149ZM 217.438 54.1353C 218.691 54.7735 219.911 55.4 221.108 56.0085L 221.561 55.1171C 220.366 54.5095 219.146 53.8831 217.892 53.2442L 217.438 54.1353ZM 224.789 57.8464C 226.046 58.4581 227.293 59.0427 228.533 59.5878L 228.935 58.6724C 227.707 58.1322 226.477 57.5557 225.226 56.9472L 224.789 57.8464ZM 232.37 61.1443C 233.666 61.6215 234.984 62.052 236.316 62.4203L 236.583 61.4564C 235.272 61.0946 233.994 60.6768 232.715 60.2059L 232.37 61.1443ZM 240.375 63.3331C 241.706 63.563 243.085 63.732 244.498 63.829L 244.566 62.8313C 243.18 62.7366 241.852 62.5737 240.545 62.3477L 240.375 63.3331ZM 248.652 63.9073C 249.98 63.8683 251.364 63.7683 252.79 63.6032L 252.675 62.6099C 251.271 62.7727 249.93 62.8696 248.623 62.9077L 248.652 63.9073ZM 256.898 62.9704C 258.192 62.7239 259.536 62.4253 260.922 62.0744L 260.676 61.105C 259.305 61.4524 257.99 61.7445 256.711 61.9881L 256.898 62.9704ZM 264.897 60.9593C 265.552 60.7584 266.22 60.5456 266.897 60.3222L 266.583 59.3726C 265.912 59.5944 265.254 59.804 264.604 60.0032L 264.897 60.9593ZM 266.897 60.3222C 267.51 60.1196 268.12 59.909 268.72 59.6927L 268.38 58.752C 267.787 58.966 267.19 59.1722 266.583 59.3726L 266.897 60.3222ZM 272.288 58.2957C 273.477 57.7922 274.643 57.2589 275.774 56.7039L 275.333 55.8062C 274.215 56.3553 273.074 56.8769 271.898 57.3749L 272.288 58.2957ZM 279.165 54.9186C 280.29 54.2848 281.389 53.6226 282.449 52.9421L 281.909 52.1006C 280.861 52.7735 279.787 53.4208 278.675 54.0473L 279.165 54.9186ZM 285.612 50.7778C 286.656 50.0174 287.669 49.2308 288.64 48.4304L 288.004 47.6589C 287.045 48.45 286.055 49.2182 285.023 49.9696L 285.612 50.7778ZM 291.523 45.9012C 292.471 45.0165 293.383 44.1089 294.248 43.1932L 293.521 42.5066C 292.667 43.4111 291.777 44.2964 290.841 45.1701L 291.523 45.9012ZM 296.793 40.3176C 297.62 39.318 298.405 38.3002 299.137 37.282L 298.325 36.6983C 297.603 37.7029 296.839 38.6936 296.022 39.6799L 296.793 40.3176ZM 301.266 34.0871C 301.95 32.9732 302.583 31.8476 303.155 30.7324L 302.265 30.2765C 301.702 31.3745 301.088 32.4662 300.414 33.5633L 301.266 34.0871ZM 304.76 27.2455C 305.259 26.0243 305.692 24.8008 306.05 23.605L 305.092 23.3182C 304.741 24.4905 304.324 25.6683 303.834 26.8672L 304.76 27.2455ZM 306.951 19.8592C 307.186 18.5471 307.331 17.2485 307.381 16.008L 306.382 15.9683C 306.334 17.173 306.197 18.4031 305.967 19.6823L 306.951 19.8592ZM 307.209 12.1207C 307.027 10.7885 306.709 9.49992 306.265 8.32696L 305.33 8.68137C 305.754 9.79767 306.045 10.9762 306.218 12.2556L 307.209 12.1207ZM 304.377 4.87747C 303.592 3.84287 302.624 2.90598 301.529 2.14266L 300.959 2.96372C 301.989 3.67817 302.843 4.5057 303.579 5.48097L 304.377 4.87747ZM 298.005 0.393787C 297.406 0.193614 296.763 0.0207976 296.106 -0.115264L 295.904 0.864034C 296.532 0.993708 297.117 1.15106 297.688 1.34215L 298.005 0.393787ZM 296.106 -0.115264C 295.387 -0.26374 294.668 -0.369614 293.98 -0.431326L 293.891 0.564702C 294.551 0.623464 295.213 0.720975 295.904 0.864034L 296.106 -0.115264ZM 289.674 -0.253671C 288.211 0.0135431 286.821 0.500599 285.592 1.14638L 286.058 2.03114C 287.22 1.41733 288.467 0.980353 289.853 0.730249L 289.674 -0.253671ZM 282.131 3.72975C 281.132 4.75276 280.27 5.95305 279.607 7.22837L 280.494 7.68915C 281.122 6.47643 281.898 5.39594 282.846 4.42915L 282.131 3.72975ZM 278.175 11.2887C 277.894 12.6634 277.789 14.1289 277.879 15.5826L 278.877 15.52C 278.789 14.1336 278.885 12.7999 279.154 11.4891L 278.175 11.2887ZM 278.691 19.7987C 279.119 21.1056 279.727 22.4277 280.502 23.6847L 281.353 23.1593C 280.608 21.9552 280.05 20.7407 279.641 19.4881L 278.691 19.7987ZM 283.132 27.0586C 284.068 28.0304 285.154 28.9726 286.364 29.8395L 286.946 29.0265C 285.774 28.1875 284.756 27.3052 283.852 26.3651L 283.132 27.0586ZM 290.014 32.0401C 291.208 32.6439 292.512 33.2046 293.903 33.7013L 294.239 32.7595C 292.878 32.2738 291.631 31.7379 290.465 31.1478L 290.014 32.0401ZM 297.977 34.9128C 299.277 35.2288 300.657 35.5023 302.099 35.7245L 302.252 34.7361C 300.83 34.5174 299.492 34.2522 298.213 33.9411L 297.977 34.9128ZM 306.281 36.21C 306.977 36.2661 307.691 36.312 308.416 36.3468L 308.464 35.348C 307.747 35.3136 307.049 35.2687 306.361 35.2132L 306.281 36.21ZM 308.416 36.3468C 309.117 36.3805 309.812 36.4127 310.502 36.4436L 310.546 35.4446C 309.858 35.4138 309.164 35.3816 308.464 35.348L 308.416 36.3468ZM 314.658 36.6162C 316.072 36.6702 317.459 36.7183 318.818 36.761L 318.85 35.7614C 317.492 35.7189 316.108 35.6708 314.696 35.6169L 314.658 36.6162ZM 322.979 36.8766C 324.395 36.9109 325.781 36.9391 327.133 36.9617L 327.15 35.9619C 325.799 35.9393 324.418 35.9111 323.004 35.8769L 322.979 36.8766ZM 331.301 37.0152C 332.728 37.0278 334.117 37.0342 335.465 37.0349L 335.466 36.0349C 334.119 36.0342 332.735 36.0278 331.31 36.0152L 331.301 37.0152ZM 339.628 37.0189C 341.065 37.007 342.453 36.9886 343.79 36.9648L 343.772 35.965C 342.438 35.9887 341.054 36.007 339.62 36.0189L 339.628 37.0189ZM 347.946 36.8699C 349.406 36.829 350.796 36.7817 352.114 36.7299L 352.075 35.7307C 350.76 35.7824 349.375 35.8294 347.918 35.8703L 347.946 36.8699ZM 356.272 36.5405C 357.777 36.4622 359.165 36.3789 360.433 36.2943L 360.366 35.2965C 359.102 35.3809 357.721 35.4637 356.22 35.5419L 356.272 36.5405ZM 364.588 35.9805C 365.349 35.9158 366.039 35.8527 366.656 35.7931L 366.56 34.7977C 365.946 34.857 365.261 34.9196 364.503 34.9841L 364.588 35.9805Z"/>
<path id="path3_stroke" d="M 0.0552707 0.740937C 0.719205 0.667102 1.21884 0.605567 1.5503 0.562755C 1.71675 0.541251 1.84263 0.524238 1.92579 0.512747C 1.96774 0.50695 1.99974 0.502433 2.0207 0.499442C 2.03137 0.49792 2.03964 0.496727 2.04497 0.495954C 2.04773 0.495555 2.04993 0.495234 2.05131 0.495032C 2.05204 0.494925 2.05266 0.494834 2.05303 0.494781C 2.05324 0.49475 2.05343 0.494723 2.05353 0.494707C 2.05359 0.494698 2.05366 0.494689 2.05369 0.494684C 2.05371 0.494681 2.05373 0.494677 2.05375 0.494676C 2.05377 0.494672 2.05379 0.49467 1.98097 1.2207e-07C 1.90815 -0.494669 1.90817 -0.494671 1.90818 -0.494673C 1.90818 -0.494673 1.90819 -0.494675 1.90819 -0.494675C 1.9082 -0.494676 1.90819 -0.494674 1.90817 -0.494672C 1.90811 -0.494663 1.90806 -0.494655 1.90795 -0.494639C 1.90767 -0.494598 1.90732 -0.494547 1.90677 -0.494467C 1.90557 -0.494292 1.90392 -0.49405 1.90152 -0.493704C 1.89656 -0.492984 1.88938 -0.491949 1.87945 -0.490531C 1.85921 -0.487644 1.8294 -0.483435 1.78891 -0.477841C 1.70721 -0.466551 1.58572 -0.450127 1.42219 -0.429005C 1.09366 -0.386567 0.602822 -0.326103 -0.0552433 -0.252938L 0.0552707 0.740937Z"/>
<path id="path4_fill" d="M 17.0711 2.92872C 13.1661 -0.976239 6.83445 -0.976239 2.92894 2.92872C -0.589807 6.44746 -0.985914 13.0729 2.00029 17.0543L 10 28.6074L 17.9997 17.0543C 20.9859 13.0729 20.5898 6.44746 17.0711 2.92872ZM 10.0974 13.2033C 8.27418 13.2033 6.79649 11.7256 6.79649 9.9024C 6.79649 8.07921 8.27418 6.60151 10.0974 6.60151C 11.9206 6.60151 13.3983 8.07921 13.3983 9.9024C 13.3983 11.7256 11.9206 13.2033 10.0974 13.2033Z"/>
</defs>
</svg>
