<svg width="41" height="42" viewBox="0 0 41 42" version="1.1" xmlns="http://www.w3.org/2000/svg" xmlns:xlink="http://www.w3.org/1999/xlink" xmlns:figma="http://www.figma.com/figma/ns">
<title>Meddia_icons-03</title>
<desc>Created using Figma</desc>
<g id="Canvas" transform="translate(2724 -2144)" figma:type="canvas">
<g id="Meddia_icons-03" style="mix-blend-mode:normal;" figma:type="frame">
<g id="Group" style="mix-blend-mode:normal;" figma:type="frame">
<g id="Group" style="mix-blend-mode:normal;" figma:type="frame">
<g id="Vector" style="mix-blend-mode:normal;" figma:type="vector">
<use xlink:href="#path0_fill" transform="translate(-2723.5 2144.25)" fill="#48B29E" style="mix-blend-mode:normal;"/>
</g>
</g>
</g>
</g>
</g>
<defs>
<path id="path0_fill" d="M 26.0226 10.4348C 28.9096 10.4348 31.3043 12.7652 31.3043 15.6522L 31.3043 24.3478L 34.7826 24.3478L 34.7826 15.6522C 34.7826 11.4104 31.6904 7.86087 27.6557 7.09565C 26.8904 3.06087 23.3113 0 19.0661 0L 0 0L 0 41.7391L 24.3478 41.7391L 24.3478 38.2609L 3.47826 38.2609L 3.47826 3.47826L 19.0661 3.47826C 21.953 3.47826 24.3478 5.8087 24.3478 8.69565L 24.3478 10.4348L 26.0226 10.4348ZM 8.69565 15.6522L 15.6522 15.6522L 15.6522 12.1739L 8.69565 12.1739L 8.69565 15.6522ZM 34.7826 33.0435L 34.7826 27.8261L 31.3043 27.8261L 31.3043 33.0435L 26.087 33.0435L 26.087 36.5217L 31.3043 36.5217L 31.3043 41.7391L 34.7826 41.7391L 34.7826 36.5217L 40 36.5217L 40 33.0435L 34.7826 33.0435ZM 8.69565 22.6087L 24.3478 22.6087L 24.3478 19.1304L 8.69565 19.1304L 8.69565 22.6087Z"/>
</defs>
</svg>
