<svg width="31" height="32" viewBox="0 0 31 32" version="1.1" xmlns="http://www.w3.org/2000/svg" xmlns:xlink="http://www.w3.org/1999/xlink" xmlns:figma="http://www.figma.com/figma/ns">
<title>Meddia_icons-03</title>
<desc>Created using Figma</desc>
<g id="Canvas" transform="translate(4439 -1431)" figma:type="canvas">
<g id="Meddia_icons-03" style="mix-blend-mode:normal;" figma:type="frame">
<g id="Group" style="mix-blend-mode:normal;" figma:type="frame">
<g id="Group" style="mix-blend-mode:normal;" figma:type="frame">
<g id="Vector" style="mix-blend-mode:normal;" figma:type="vector">
<use xlink:href="#path0_fill" transform="translate(-4438.98 1431.42)" fill="#FFFFFF" style="mix-blend-mode:normal;"/>
</g>
</g>
</g>
</g>
</g>
<defs>
<path id="path0_fill" d="M 19.517 7.82609C 21.6822 7.82609 23.4783 9.57391 23.4783 11.7391L 23.4783 18.2609L 26.087 18.2609L 26.087 11.7391C 26.087 8.55783 23.7678 5.89565 20.7417 5.32174C 20.1678 2.29565 17.4835 0 14.2996 0L 0 0L 0 31.3043L 18.2609 31.3043L 18.2609 28.6957L 2.6087 28.6957L 2.6087 2.6087L 14.2996 2.6087C 16.4648 2.6087 18.2609 4.35652 18.2609 6.52174L 18.2609 7.82609L 19.517 7.82609ZM 6.52174 11.7391L 11.7391 11.7391L 11.7391 9.13043L 6.52174 9.13043L 6.52174 11.7391ZM 26.087 24.7826L 26.087 20.8696L 23.4783 20.8696L 23.4783 24.7826L 19.5652 24.7826L 19.5652 27.3913L 23.4783 27.3913L 23.4783 31.3043L 26.087 31.3043L 26.087 27.3913L 30 27.3913L 30 24.7826L 26.087 24.7826ZM 6.52174 16.9565L 18.2609 16.9565L 18.2609 14.3478L 6.52174 14.3478L 6.52174 16.9565Z"/>
</defs>
</svg>
