<svg width="31" height="37" viewBox="0 0 31 37" version="1.1" xmlns="http://www.w3.org/2000/svg" xmlns:xlink="http://www.w3.org/1999/xlink" xmlns:figma="http://www.figma.com/figma/ns">
<title>Meddia_icons-04</title>
<desc>Created using Figma</desc>
<g id="Canvas" transform="translate(4709 -1429)" figma:type="canvas">
<g id="Meddia_icons-04" style="mix-blend-mode:normal;" figma:type="frame">
<g id="Group" style="mix-blend-mode:normal;" figma:type="frame">
<g id="Group" style="mix-blend-mode:normal;" figma:type="frame">
<g id="Vector" style="mix-blend-mode:normal;" figma:type="vector">
<use xlink:href="#path0_fill" transform="translate(-4708.48 1444.42)" fill="#FFFFFF" style="mix-blend-mode:normal;"/>
</g>
<g id="Vector" style="mix-blend-mode:normal;" figma:type="vector">
<use xlink:href="#path1_fill" transform="translate(-4699.48 1429.42)" fill="#FFFFFF" style="mix-blend-mode:normal;"/>
</g>
</g>
</g>
</g>
</g>
<defs>
<path id="path0_fill" d="M 9.74938 2.53538e-07L 0 2.53538e-07L 0 3.00055L 9.74938 3.00055C 10.1994 3.00055 10.4999 3.30102 10.4999 3.75104L 10.4999 21.0011L 13.5004 21.0011L 13.5004 3.75104C 13.5004 1.64913 11.8513 2.53538e-07 9.74938 2.53538e-07ZM 20.2506 2.53538e-07C 18.1487 2.53538e-07 16.4996 1.64913 16.4996 3.75104L 16.4996 21.0011L 19.5001 21.0011L 19.5001 3.75104C 19.5001 3.30102 19.8006 3.00055 20.2506 3.00055L 30 3.00055L 30 2.53538e-07L 20.2506 2.53538e-07Z"/>
<path id="path1_fill" d="M 11.9994 5.99972C 11.9994 2.70008 9.30075 0 5.99972 0C 2.6987 0 0 2.70008 0 5.99972C 0 9.30075 2.6987 12.0008 5.99972 12.0008C 9.30075 12.0008 11.9994 9.30075 11.9994 5.99972ZM 5.99972 9.00028C 4.3506 9.00028 2.99917 7.64885 2.99917 5.99972C 2.99917 4.3506 4.3506 3.00055 5.99972 3.00055C 7.64885 3.00055 9.00028 4.3506 9.00028 5.99972C 9.00028 7.64885 7.64885 9.00028 5.99972 9.00028Z"/>
</defs>
</svg>
